<svg width="45" height="45" viewBox="0 0 45 45" fill="none" xmlns="http://www.w3.org/2000/svg">
<path d="M40.3743 13.3343C40.4029 13.734 40.4029 14.1338 40.4029 14.5336C40.4029 26.7257 31.1231 40.774 14.1624 40.774C8.93716 40.774 4.08313 39.2606 0 36.6338C0.742412 36.7194 1.45617 36.748 2.22715 36.748C6.53862 36.748 10.5076 35.2918 13.677 32.8077C9.62244 32.722 6.22459 30.0666 5.05389 26.4117C5.625 26.4973 6.19602 26.5544 6.7957 26.5544C7.62372 26.5544 8.45182 26.4402 9.22271 26.2404C4.99684 25.3837 1.82733 21.6719 1.82733 17.189V17.0748C3.05508 17.7601 4.48286 18.1884 5.99607 18.2454C3.51193 16.5893 1.88446 13.7626 1.88446 10.5646C1.88446 8.85143 2.34123 7.281 3.14077 5.91043C7.68076 11.5069 14.505 15.1616 22.1572 15.5614C22.0145 14.8762 21.9288 14.1624 21.9288 13.4485C21.9288 8.36601 26.0405 4.22583 31.1515 4.22583C33.8069 4.22583 36.2054 5.3394 37.8901 7.13826C39.9744 6.73854 41.9731 5.96756 43.7435 4.91111C43.0581 7.05266 41.602 8.85151 39.6889 9.99356C41.5449 9.79379 43.3438 9.27972 44.9998 8.56596C43.7437 10.3933 42.1732 12.0208 40.3743 13.3343V13.3343Z" fill="#8D8D8D"/>
</svg>
