<svg width="150" height="30" viewBox="0 0 150 30" fill="none" xmlns="http://www.w3.org/2000/svg">
<path d="M0 20.9676V9.07241L7.66335 12.302V20.2821C7.66335 22.1101 8.6469 23.0241 10.614 23.0241C12.581 23.0241 13.5646 22.1101 13.5646 20.2821V9.07241L21.2279 5.50342V20.9676C21.2279 23.8978 20.2034 26.1154 18.1544 27.6208C16.078 29.1262 13.5646 29.8788 10.614 29.8788C7.66336 29.8788 5.14988 29.1262 3.07354 27.6208C1.02451 26.0887 0 23.8708 0 20.9676Z" fill="white"/>
<path d="M31.7824 29.3953H24.2012V1.29028H31.7824V29.3953Z" fill="white"/>
<path d="M43.8446 29.3953H36.2634V15.5645H33.4355V9.07257H36.2634V1.29028H43.8446V9.07257H48.1066V15.5645H43.8446V29.3953Z" fill="white"/>
<path d="M56.4665 6.97582C55.647 7.75539 54.6636 8.14518 53.5159 8.14518C52.3685 8.14518 51.3851 7.75539 50.5653 6.97582C49.7458 6.16938 49.3359 5.20163 49.3359 4.07259C49.3359 2.94355 49.7458 1.98925 50.5653 1.20968C51.3851 0.403227 52.3685 0 53.5159 0C54.6636 0 55.647 0.403227 56.4665 1.20968C57.2863 1.98925 57.6959 2.94355 57.6959 4.07259C57.6959 5.20163 57.2863 6.16938 56.4665 6.97582ZM57.3273 29.3953H49.7458V9.07261H57.3273V29.3953Z" fill="white"/>
<path d="M68.0785 29.3952H60.4971V9.07251H68.0785V11.5725C69.1985 9.58327 70.9198 8.58862 73.242 8.58862C76.0286 8.58862 77.9138 9.63703 78.8973 11.7338C80.3454 9.63703 82.6538 8.58862 85.8229 8.58862C88.1999 8.58862 90.0167 9.35477 91.2735 10.887C92.5574 12.3924 93.1994 14.5564 93.1994 17.379V29.3952H85.6182V18.2661C85.6182 17.2983 85.4133 16.5322 85.0034 15.9677C84.5935 15.4032 84.0199 15.1209 83.2822 15.1209C82.5172 15.1209 81.8888 15.43 81.397 16.0483C80.9054 16.6397 80.6595 17.4193 80.6595 18.387V29.3952H73.078V18.2661C73.078 17.2983 72.8595 16.5322 72.4224 15.9677C72.0126 15.4032 71.4388 15.1209 70.7012 15.1209C69.9635 15.1209 69.3351 15.43 68.8161 16.0483C68.3242 16.6397 68.0785 17.4193 68.0785 18.387V29.3952Z" fill="white"/>
<path d="M96.0166 20.9677V9.07251H103.68V20.2822C103.68 22.1102 104.663 23.0242 106.631 23.0242C108.598 23.0242 109.581 22.1102 109.581 20.2822V9.07251H117.245V20.9677C117.245 23.8979 116.22 26.1155 114.171 27.6209C112.095 29.1263 109.581 29.8789 106.631 29.8789C103.68 29.8789 101.166 29.1263 99.0902 27.6209C97.0411 26.0888 96.0166 23.8709 96.0166 20.9677Z" fill="white"/>
<path d="M118.34 26.9356L122.356 21.9355C123.831 23.1452 125.894 23.7501 128.544 23.7501C129.364 23.7501 129.951 23.6828 130.306 23.5486C130.661 23.4141 130.839 23.1588 130.839 22.7824C130.839 22.4867 130.538 22.2851 129.937 22.1774C129.363 22.0162 128.489 21.855 127.315 21.6935C126.194 21.5054 125.184 21.2635 124.282 20.9678C121.386 19.9732 119.938 18.1586 119.938 15.5242C119.938 13.2393 120.812 11.492 122.561 10.2823C124.337 9.07261 126.413 8.46777 128.79 8.46777C131.495 8.46777 134.035 9.19358 136.412 10.6452L133.462 15.6452C131.932 14.785 130.292 14.3549 128.544 14.3549C127.315 14.3549 126.7 14.6371 126.7 15.2017C126.7 15.5242 126.864 15.7527 127.192 15.8871L129.527 16.2904C130.921 16.5323 132.164 16.8414 133.257 17.2178C136.289 18.2393 137.805 20.0673 137.805 22.7017C137.805 25.0136 136.986 26.8147 135.347 28.1049C133.735 29.3684 131.344 30.0001 128.175 30.0001C124.35 30.0001 121.072 28.9786 118.34 26.9356Z" fill="white"/>
<path d="M150 24.636C150 27.2635 147.823 29.3935 145.138 29.3935C142.452 29.3935 140.275 27.2635 140.275 24.636C140.275 22.0085 142.452 19.8784 145.138 19.8784C147.823 19.8784 150 22.0085 150 24.636Z" fill="#F3AD3D"/>
</svg>
